# xmcd CD database file
#
# Track frame offsets:
#	150
#	12890
#	23087
#	39670
#	53287
#	66920
#	81922
#	95275
#	115170
#	135222
#
# Disc length: 2098 seconds
#
# Revision: 0
# Processed by: cddbd v1.5.2PL0 Copyright (c) Steve Scherf et al.
# Submitted via: CdAid (MTCDDB.DLL V2003.12.21)
#
DISCID=6e08300a
DTITLE=Rone e Roger - Cantando e Encantando
DYEAR=1994
DGENRE=Folk
TTITLE0=Zé do buteco
TTITLE1=Vendedor ambulante
TTITLE2=Chá de chifre
TTITLE3=Forró animado
TTITLE4=Fuscão da madrugada
TTITLE5=Passarinho do vovô
TTITLE6=Vida de peão
TTITLE7=Vem me fazer feliz
TTITLE8=Conversando com as estrelas
TTITLE9=Cowboy de verdade
EXTD=ID3G:  80 YEAR: 1994
EXTT0=
EXTT1=
EXTT2=
EXTT3=
EXTT4=
EXTT5=
EXTT6=
EXTT7=
EXTT8=
EXTT9=
PLAYORDER=
